<svg width="44" height="44" xmlns="http://www.w3.org/2000/svg" fill="none" viewBox="0 0 44 44"><g clip-path="url(#a)"><path d="M44 22C44 9.85 34.15 0 22 0S0 9.85 0 22s9.85 22 22 22 22-9.85 22-22Z" fill="#00ADFF"/><path d="M22.881 22.377c1.75-8.191 3.343-11.177 6.502-11.177 5.24 0 7.594 4.824 4.265 14.715-3.206 9.534-10.28 11.229-15.42 8.182-3.728-2.21-6.667-6.985-7.78-9.619-1.75-4.14-2.67-8.665-.365-11.135 1.887-2.023 4.056-2.998 8.144 1.65 4.09 4.647 4.654 7.383 4.654 7.383Z" fill="#fff"/></g><defs><clipPath id="a"><path d="M0 0h44v44H0z" fill="#fff"/></clipPath></defs></svg>